<svg width="30" height="30" viewBox="0 0 30 30" fill="none" xmlns="http://www.w3.org/2000/svg">
<path d="M30 15C30 23.2843 23.2843 30 15 30C6.71573 30 0 23.2843 0 15C0 6.71573 6.71573 0 15 0C23.2843 0 30 6.71573 30 15Z" fill="#692927"/>
<path d="M15.9252 6.00111C16.5819 5.99859 17.2387 6.00519 17.8952 6.02091L18.0698 6.02721C18.2714 6.03441 18.4703 6.04341 18.7106 6.05421C19.6681 6.0992 20.3215 6.2504 20.8948 6.47269C21.4887 6.70128 21.9891 7.01087 22.4895 7.51126C22.947 7.96089 23.3011 8.50477 23.5271 9.1051C23.7494 9.67838 23.9006 10.3327 23.9456 11.2902C23.9564 11.5296 23.9654 11.7294 23.9726 11.931L23.978 12.1056C23.994 12.7619 24.0009 13.4183 23.9987 14.0747L23.9996 14.7461V15.9251C24.0018 16.5818 23.9949 17.2386 23.9789 17.8951L23.9735 18.0697C23.9663 18.2713 23.9573 18.4702 23.9465 18.7105C23.9015 19.668 23.7485 20.3214 23.5271 20.8947C23.3018 21.4957 22.9476 22.04 22.4895 22.4894C22.0395 22.9469 21.4953 23.301 20.8948 23.5271C20.3215 23.7494 19.6681 23.9006 18.7106 23.9456C18.4703 23.9564 18.2714 23.9654 18.0698 23.9726L17.8952 23.978C17.2387 23.994 16.5819 24.0009 15.9252 23.9987L15.2538 23.9996H14.0758C13.4191 24.0018 12.7623 23.9949 12.1058 23.9789L11.9312 23.9735C11.7176 23.9658 11.504 23.9568 11.2904 23.9465C10.3329 23.9015 9.67953 23.7485 9.10536 23.5271C8.50481 23.3015 7.96083 22.9474 7.51154 22.4894C7.05351 22.0397 6.69909 21.4955 6.473 20.8947C6.25071 20.3214 6.09951 19.668 6.05452 18.7105C6.04449 18.4969 6.03549 18.2833 6.02752 18.0697L6.02302 17.8951C6.00643 17.2386 5.99893 16.5818 6.00052 15.9251V14.0747C5.99801 13.4183 6.00461 12.7619 6.02032 12.1056L6.02662 11.931C6.03382 11.7294 6.04282 11.5296 6.05362 11.2902C6.09861 10.3318 6.24981 9.67928 6.47209 9.1051C6.69832 8.50448 7.05343 7.96074 7.51244 7.51216C7.96142 7.05385 8.50506 6.6991 9.10536 6.47269C9.67953 6.2504 10.332 6.0992 11.2904 6.05421L11.9312 6.02721L12.1058 6.02271C12.762 6.00612 13.4185 5.99862 14.0749 6.00021L15.9252 6.00111ZM15.0001 10.501C14.4038 10.4925 13.8119 10.6027 13.2586 10.825C12.7054 11.0473 12.2018 11.3774 11.7772 11.7961C11.3526 12.2147 11.0154 12.7136 10.7853 13.2636C10.5552 13.8137 10.4367 14.4041 10.4367 15.0004C10.4367 15.5966 10.5552 16.187 10.7853 16.7371C11.0154 17.2871 11.3526 17.786 11.7772 18.2046C12.2018 18.6233 12.7054 18.9534 13.2586 19.1757C13.8119 19.398 14.4038 19.5082 15.0001 19.4997C16.1935 19.4997 17.338 19.0257 18.1819 18.1818C19.0257 17.3379 19.4998 16.1933 19.4998 14.9999C19.4998 13.8065 19.0257 12.6619 18.1819 11.818C17.338 10.9741 16.1935 10.501 15.0001 10.501ZM15.0001 12.3009C15.3587 12.2943 15.7151 12.3592 16.0483 12.4919C16.3816 12.6245 16.6851 12.8223 16.9411 13.0736C17.197 13.3248 17.4004 13.6246 17.5392 13.9553C17.6781 14.2861 17.7496 14.6412 17.7497 14.9999C17.7497 15.3586 17.6783 15.7137 17.5396 16.0445C17.4009 16.3753 17.1976 16.6751 16.9417 16.9265C16.6858 17.1779 16.3824 17.3757 16.0492 17.5085C15.7159 17.6413 15.3596 17.7063 15.001 17.6998C14.2849 17.6998 13.5982 17.4154 13.0919 16.909C12.5855 16.4027 12.3011 15.716 12.3011 14.9999C12.3011 14.2838 12.5855 13.5971 13.0919 13.0908C13.5982 12.5844 14.2849 12.3 15.001 12.3L15.0001 12.3009ZM19.7248 9.151C19.4345 9.16262 19.1599 9.28613 18.9586 9.49566C18.7573 9.70519 18.6449 9.98449 18.6449 10.2751C18.6449 10.5656 18.7573 10.8449 18.9586 11.0545C19.1599 11.264 19.4345 11.3875 19.7248 11.3991C20.0232 11.3991 20.3093 11.2806 20.5203 11.0696C20.7312 10.8587 20.8498 10.5725 20.8498 10.2742C20.8498 9.9758 20.7312 9.68967 20.5203 9.47869C20.3093 9.26772 20.0232 9.1492 19.7248 9.1492V9.151Z" fill="white"/>
</svg>
