<svg width="57" height="58" viewBox="0 0 57 58" fill="none" xmlns="http://www.w3.org/2000/svg">
<path d="M13.5714 11.7318C13.5714 8.08358 16.1108 5.75136 18.8255 5.5704C19.8935 5.49927 20.98 5.76836 21.9016 6.41527V5.74707C21.9016 3.94035 22.5259 2.48286 23.5546 1.47717C24.5701 0.484457 25.9112 6.68673e-05 27.2326 0C28.5543 -7.56171e-07 29.6381 0.231922 30.9118 1.47717C32.1855 2.72241 32.5 4 32.541 7.10451C33.4513 6.51715 34.5195 6.23691 35.5628 6.23686C36.8526 6.23686 38.1812 6.66479 39.2019 7.57195C40.2439 8.49819 40.8939 9.86282 40.8939 11.5675V17.8269C41.7783 17.2288 42.8213 16.9016 43.854 16.867C45.1598 16.8235 46.5121 17.2368 47.5472 18.1913C48.5987 19.161 49.2241 20.5982 49.2241 22.4059V24.6271C49.2241 25.2711 48.7022 25.793 48.0581 25.793C47.4141 25.7928 46.8921 25.271 46.8921 24.6271V22.4059C46.8921 21.1595 46.4762 20.3755 45.9658 19.9049C45.439 19.4193 44.7085 19.173 43.932 19.1988C42.3781 19.2507 40.8939 20.3539 40.8939 22.4059V24.6271C40.8939 25.2711 40.372 25.793 39.7279 25.793C39.0839 25.7928 38.5619 25.271 38.5619 24.6271V11.5675C38.5619 10.4958 38.1715 9.77793 37.6519 9.31592C37.1106 8.83484 36.3556 8.56866 35.5628 8.56866C34.7702 8.56872 34.016 8.83493 33.4749 9.31592C32.9551 9.77792 32.5637 10.4957 32.5637 11.5675V29.0694C32.5637 29.7134 32.0418 30.2353 31.3977 30.2353C30.7538 30.2352 30.2317 29.7133 30.2317 29.0694V5.74707C30.2317 4.49999 29.8147 3.66661 29.2816 3.14522C28.7353 2.61118 27.9935 2.3318 27.2326 2.3318C26.4719 2.33187 25.731 2.61124 25.1848 3.14522C24.6516 3.66659 24.2336 4.49978 24.2336 5.74707V29.0694C24.2336 29.7134 23.7116 30.2353 23.0676 30.2353C22.4236 30.2352 21.9016 29.7133 21.9016 29.0694V11.7318L21.8961 11.4422C21.8445 10.0307 21.4161 9.14816 20.9243 8.63428C20.4018 8.08859 19.7068 7.84951 18.9806 7.89786C17.5302 7.99455 15.9034 9.27192 15.9034 11.7318V37.9541C15.9033 38.4256 15.6198 38.8505 15.1843 39.0311C14.7485 39.2116 14.2466 39.1119 13.913 38.7784L7.84222 32.7081C5.99423 31.1028 4.27761 31.3556 3.32353 32.1279C2.35258 32.9139 1.86206 34.4667 2.94607 36.2123L12.9293 51.741C14.2079 53.5229 15.4425 54.4593 16.7288 54.9795C18.0527 55.5149 19.5358 55.6547 21.4102 55.6682H35.8405C36.4846 55.6682 37.0076 56.1901 37.0076 56.8341C37.0075 57.4781 36.4845 58 35.8405 58H21.3939C19.453 57.986 17.6031 57.8482 15.8546 57.141C14.0751 56.4214 12.5027 55.157 11.0116 53.0696C11.0005 53.0541 10.9904 53.0379 10.9801 53.0219L0.983927 37.4737L0.97525 37.4617L0.976335 37.4606C-0.705729 34.7693 -0.0860903 31.8865 1.85599 30.3145C3.75319 28.779 6.62331 28.7069 9.15357 30.7624L9.39653 30.9685L9.45402 31.0216L13.5714 35.1386V11.7318ZM44.7824 28.5705C45.0984 28.4209 45.4654 28.4209 45.7814 28.5705L56.3329 33.5682C56.7401 33.7611 57 34.1718 57 34.6223C57 39.7797 55.9941 43.9948 54.091 47.6544C52.1922 51.3054 49.435 54.3363 46.0287 57.1746C45.5962 57.535 44.9676 57.535 44.5351 57.1746C41.1287 54.3362 38.3706 51.3056 36.4718 47.6544C34.5687 43.9949 33.5638 39.7796 33.5638 34.6223C33.5638 34.1717 33.8236 33.7611 34.2309 33.5682L44.7824 28.5705ZM35.9056 35.3555C35.9961 39.8505 36.9219 43.4645 38.5413 46.5785C40.119 49.6123 42.3839 52.2286 45.2814 54.7463C48.1789 52.2286 50.4436 49.6123 52.0214 46.5785C53.6409 43.4645 54.5666 39.8504 54.6571 35.3555L45.2814 30.9153L35.9056 35.3555Z" fill="black"/>
</svg>
