<svg width="54" height="60" viewBox="0 0 54 60" fill="none" xmlns="http://www.w3.org/2000/svg">
<path d="M19.322 22.0813C19.322 22.0793 19.3211 22.0778 19.321 22.0765C19.3183 22.0747 19.3142 22.0725 19.3088 22.0699C19.282 22.0572 19.1598 22.0171 18.9516 22.135C18.8362 22.2005 18.6886 22.322 18.5305 22.5351L17.003 27.6868L17.5284 32.9979C17.5491 33.2082 17.5035 33.4195 17.3987 33.6028L11.4118 44.0684C11.2315 44.3833 10.8975 44.5779 10.5357 44.5779H7.19204V51.8252C7.19205 52.2081 7.30782 52.5781 7.53233 52.9263C8.08461 53.7829 9.2843 54.4685 10.6579 54.5624C11.989 54.6534 13.3611 54.1787 14.3032 52.8801C14.5723 52.5092 14.8136 52.0608 15.0111 51.5223L19.322 34.0726V22.0813ZM3.46019 54.4916C2.96069 54.4916 2.6367 54.6885 2.41489 54.9691C2.17237 55.2759 2.02105 55.7303 2.02103 56.2315C2.02103 56.7328 2.17234 57.1881 2.41489 57.4949C2.63669 57.7753 2.96088 57.9714 3.46019 57.9714H50.5398C51.0391 57.9714 51.3633 57.7753 51.5851 57.4949C51.8277 57.1881 51.979 56.7328 51.979 56.2315C51.9789 55.7303 51.8276 55.2759 51.5851 54.9691C51.3633 54.6885 51.0393 54.4916 50.5398 54.4916H47.8213C46.8007 55.7151 45.1546 56.4727 43.4794 56.5872C41.7035 56.7086 39.7851 56.1173 38.392 54.4916H15.608C14.2149 56.1173 12.2965 56.7086 10.5206 56.5872C8.84535 56.4727 7.19927 55.7151 6.17871 54.4916H3.46019ZM33.5519 37.9477C31.3453 39.8287 28.9576 40.7217 26.8637 40.7217C24.7542 40.7216 22.564 39.8171 20.4434 37.9609L16.9597 52.0696C16.9514 52.1034 16.9405 52.1369 16.9287 52.1696C16.8929 52.2692 16.8554 52.3669 16.8168 52.4631H37.1832C37.1446 52.3669 37.1071 52.2692 37.0713 52.1696C37.0595 52.1369 37.0486 52.1034 37.0403 52.0696L33.5519 37.9477ZM43.9898 29.6701C42.7744 28.8163 41.1244 28.4257 38.9429 28.5369L38.5142 32.8743L44.05 42.5484H46.808V34.8501C46.3095 32.2289 45.3252 30.6084 43.9898 29.6701ZM15.0562 28.5369C12.8752 28.4259 11.2254 28.8165 10.0102 29.6701C8.67482 30.6084 7.69053 32.2289 7.19204 34.8501V42.5484H9.95004L15.4848 32.8743L15.0562 28.5369ZM31.9172 2.08495C30.1332 1.80857 28.0816 2.549 26.6437 4.97405C26.4688 5.26905 26.1573 5.45575 25.8156 5.4694C25.4739 5.48306 25.1485 5.32206 24.9508 5.04198C23.8741 3.51657 22.0487 3.06956 20.4603 3.62385C18.9111 4.16452 17.5331 5.69502 17.5331 8.31133C17.5331 8.65266 17.3622 8.97098 17.0782 9.15862C16.7938 9.34622 16.4336 9.37807 16.1212 9.2426C14.4175 8.50378 12.991 8.56535 11.9776 9.12937C10.9728 9.68874 10.1499 10.8675 9.90586 12.8422C9.85456 13.2575 9.55431 13.5993 9.15009 13.7017C6.50219 14.3717 5.45347 16.6858 5.6899 19.0186C5.93458 21.4318 7.45833 23.2701 9.44713 23.2701H16.2049L16.642 21.7925L16.6956 21.652C16.7165 21.607 16.7406 21.5633 16.768 21.5217C17.0405 21.1081 17.3594 20.7746 17.7117 20.5263C18.4801 19.25 19.3853 18.175 20.6963 17.4089C21.3923 17.0022 22.1766 16.698 23.0745 16.4861H21.9653C21.611 16.4861 21.2824 16.3001 21.0995 15.9955C20.9167 15.6907 20.9066 15.3117 21.0723 14.9972L25.4264 6.73563L25.5129 6.59881C25.737 6.30043 26.111 6.14591 26.4868 6.20914L29.7524 6.76016C30.0754 6.81464 30.3523 7.02281 30.495 7.31873C30.6376 7.61477 30.6286 7.96199 30.4705 8.25L28.4777 11.8779L31.8749 12.26C32.228 12.2997 32.5349 12.5234 32.6824 12.8478C32.8296 13.1722 32.7964 13.5506 32.595 13.8442L30.7723 16.4993C31.8685 16.757 32.8094 17.1467 33.629 17.6797C34.7587 18.4143 35.5947 19.3838 36.2873 20.5254C36.586 20.7356 36.8607 21.0069 37.1033 21.3368L37.232 21.5217L37.3044 21.652C37.3255 21.6973 37.3438 21.7445 37.358 21.7925L37.7951 23.2701H44.2812C45.8029 23.27 47.4253 21.7409 47.8467 19.5488C48.0474 18.5041 47.9446 17.3921 47.4349 16.3748C46.9287 15.3642 45.9875 14.3797 44.3987 13.6376C44.0057 13.454 43.7731 13.0388 43.8206 12.6063C44.0728 10.3083 43.5467 8.44732 42.5102 7.36025C41.5249 6.32696 39.8705 5.78113 37.327 6.53088C36.7947 6.68778 36.2358 6.38441 36.0749 5.85154C35.4369 3.73936 33.7473 2.36859 31.9172 2.08495ZM23.6442 14.4575H26.8637C27.2097 14.4575 27.5318 14.6351 27.7172 14.9283C27.9026 15.2215 27.9256 15.5897 27.7783 15.9039L27.674 16.1247C27.973 16.1347 28.263 16.1486 28.5444 16.17L29.9723 14.0876L26.7518 13.7263C26.4165 13.6886 26.1212 13.4854 25.966 13.1847C25.8108 12.8839 25.8163 12.5246 25.9791 12.2279L28.0115 8.52362L26.8712 8.33114L23.6442 14.4575ZM48.8299 51.8252C48.8299 52.0429 48.8106 52.2557 48.7763 52.4631H50.5398C51.6731 52.4631 52.5744 52.9554 53.169 53.7076C53.7429 54.4335 54 55.3559 54 56.2315C54 57.1072 53.7428 58.0296 53.169 58.7555C52.5744 59.5077 51.6731 60 50.5398 60H3.46019C2.32685 60 1.42561 59.5077 0.830972 58.7555C0.25718 58.0296 3.71331e-07 57.1072 0 56.2315C2.48498e-05 55.3559 0.257131 54.4335 0.830972 53.7076C1.42559 52.9554 2.32688 52.4631 3.46019 52.4631H5.22365C5.18944 52.2557 5.17007 52.0429 5.17007 51.8252V34.7501C5.17007 34.6881 5.17574 34.6261 5.18699 34.5652C5.73986 31.571 6.92501 29.3608 8.85116 28.0076C10.5741 26.7973 12.7455 26.3771 15.2414 26.5159L15.6023 25.2997H9.44713C5.99319 25.2997 3.9789 22.1803 3.67921 19.2233C3.38931 16.3619 4.61561 13.1177 8.00515 11.9298C8.40824 9.82509 9.44145 8.22198 10.9982 7.35553C12.3534 6.60127 13.9621 6.48592 15.6211 6.92622C16.0541 4.24432 17.737 2.42631 19.7967 1.70754C21.7543 1.0244 24.0167 1.36029 25.6699 2.82751C27.4699 0.571866 29.9144 -0.279336 32.2265 0.0789961C34.5499 0.439235 36.6337 2.00969 37.671 4.35415C40.3195 3.80579 42.4955 4.41092 43.9701 5.95721C45.4176 7.47527 46.0105 9.72193 45.8849 12.1194C47.4867 13.0004 48.588 14.1604 49.2407 15.4633C49.9727 16.9246 50.1075 18.4989 49.832 19.9328C49.3007 22.6976 47.1134 25.2995 44.2812 25.2997H38.3977L38.7577 26.5159C41.254 26.377 43.4257 26.7971 45.1488 28.0076C47.075 29.3608 48.2601 31.571 48.813 34.5652C48.8243 34.6261 48.8299 34.6881 48.8299 34.7501V51.8252ZM21.343 34.1991C21.343 34.2813 21.3336 34.3636 21.3139 34.4434L21.0008 35.7068C23.1284 37.8588 25.1522 38.693 26.8637 38.6931C28.6022 38.6931 30.8658 37.8346 32.9982 35.704L32.6861 34.4434C32.6664 34.3636 32.657 34.2813 32.657 34.1991V22.0813C32.6571 21.3207 33.0577 20.6879 33.6431 20.3348C33.3062 19.9664 32.941 19.65 32.5301 19.3828C31.6613 18.8178 30.5268 18.4206 28.9298 18.243C28.3118 18.1742 27.6264 18.1392 26.8637 18.1392C26.6054 18.1392 26.3567 18.1424 26.1173 18.1505C24.0497 18.2202 22.6979 18.5866 21.7134 19.162C21.1907 19.4674 20.7446 19.8502 20.3344 20.3225C20.9317 20.6729 21.3429 21.3111 21.343 22.0813V34.1991ZM34.678 34.0726L38.988 51.5223C39.1855 52.0609 39.4276 52.5091 39.6968 52.8801C40.6389 54.1787 42.011 54.6534 43.3421 54.5624C44.7157 54.4685 45.9154 53.7829 46.4677 52.9263C46.6922 52.5781 46.8079 52.2081 46.808 51.8252V44.5779H43.4643C43.1025 44.5779 42.7685 44.3833 42.5882 44.0684L36.6013 33.6028C36.4965 33.4195 36.4509 33.2082 36.4716 32.9979L36.9961 27.6868L35.4686 22.5351C35.3106 22.3222 35.1637 22.2004 35.0484 22.135C34.8402 22.0171 34.718 22.0572 34.6912 22.0699C34.6854 22.0727 34.6807 22.0746 34.678 22.0765V34.0726Z" fill="black"/>
</svg>
