<svg width="60" height="56" viewBox="0 0 60 56" fill="none" xmlns="http://www.w3.org/2000/svg">
<path d="M47.1545 43.5243C47.1545 43.5107 47.1551 43.4971 47.1556 43.4835L44.8742 41.7227C43.3462 42.6355 41.6157 43.2468 39.7666 43.4769C39.2667 45.7946 37.1941 47.5322 34.7123 47.5322H11.6943V50.2986C11.6943 52.138 13.1952 53.6295 15.0465 53.6295H43.8023C45.6535 53.6295 47.1545 52.138 47.1545 50.2986V43.5243ZM50.0117 36.0621C49.2557 37.667 48.1815 39.0927 46.8693 40.2596L53.3262 45.2454C54.511 46.1603 56.2228 45.9196 57.1055 44.714C57.9531 43.556 57.7173 41.9372 56.574 41.0656L50.0117 36.0621ZM22.2135 31.6132C22.8724 31.6132 23.4063 32.1437 23.4063 32.7984C23.4063 33.4532 22.8724 33.9837 22.2135 33.9837H7.44223C6.78332 33.9837 6.24939 33.4532 6.24939 32.7984C6.24939 32.1437 6.78332 31.6132 7.44223 31.6132H22.2135ZM22.2135 25.4034C22.8724 25.4034 23.4063 25.934 23.4063 26.5887C23.4063 27.2434 22.8724 27.774 22.2135 27.774H7.44223C6.78332 27.774 6.24939 27.2434 6.24939 26.5887C6.24939 25.934 6.78332 25.4034 7.44223 25.4034H22.2135ZM30.8042 25.4938C32.1518 22.8157 35.4936 20.7933 38.9233 21.4749C39.5693 21.6034 39.9879 22.2278 39.8587 22.8697C39.7294 23.5116 39.1011 23.9276 38.455 23.7992C36.2036 23.3519 33.864 24.7165 32.9391 26.5545C32.6444 27.1401 31.9273 27.3777 31.3379 27.0849C30.7486 26.7921 30.5095 26.0794 30.8042 25.4938ZM23.9179 19.1937C24.5768 19.1937 25.1107 19.7242 25.1107 20.379C25.1107 21.0337 24.5768 21.5642 23.9179 21.5642H7.44223C6.78332 21.5642 6.24939 21.0337 6.24939 20.379C6.24939 19.7242 6.78332 19.1937 7.44223 19.1937H23.9179ZM31.8716 12.984C32.5306 12.984 33.0645 13.5145 33.0645 14.1692C33.0645 14.824 32.5306 15.3545 31.8716 15.3545H7.44223C6.78332 15.3545 6.24939 14.824 6.24939 14.1692C6.24939 13.5145 6.78332 12.984 7.44223 12.984H31.8716ZM25.6223 6.20973C26.2812 6.20973 26.8151 6.74027 26.8151 7.395C26.8151 8.04973 26.2812 8.58027 25.6223 8.58027H13.6916C13.0327 8.58027 12.4988 8.04973 12.4988 7.395C12.4988 6.74027 13.0327 6.20973 13.6916 6.20973H25.6223ZM48.8588 30.5403C48.8588 24.6478 44.0512 19.8707 38.121 19.8707C32.1908 19.8707 27.3832 24.6478 27.3832 30.5403C27.3832 36.4329 32.1908 41.21 38.121 41.21C40.404 41.21 42.5174 40.5033 44.2561 39.2981C46.1666 37.974 47.6221 36.049 48.3473 33.8029C48.6788 32.776 48.8588 31.6802 48.8588 30.5403ZM47.1545 15.8628C47.1545 14.0233 45.6535 12.5319 43.8023 12.5319H39.882V17.6192C42.6833 17.9926 45.2027 19.2439 47.1545 21.0857V15.8628ZM37.4963 5.70144C37.4963 3.86196 35.9954 2.37055 34.1442 2.37055H5.73785C3.88662 2.37055 2.38569 3.86196 2.38569 5.70144V41.8308C2.38569 43.6702 3.88662 45.1616 5.73785 45.1616H34.7123C35.8354 45.1616 36.7999 44.4991 37.24 43.5475C30.4029 43.097 24.9975 37.4481 24.9975 30.5403C24.9975 23.5464 30.5384 17.8385 37.4963 17.5145V5.70144ZM39.882 10.1614H43.8023C46.9713 10.1614 49.5401 12.7139 49.5401 15.8628V23.2016C49.5401 23.4264 49.4754 23.6355 49.3659 23.8146C50.5582 25.7785 51.2445 28.0796 51.2445 30.5403C51.2445 31.6334 51.1065 32.6958 50.8506 33.7125L58.0265 39.1846C60.1963 40.8388 60.6437 43.9099 59.0352 46.1077C57.36 48.3965 54.1116 48.8541 51.8626 47.1176L49.5401 45.3237V50.2986C49.5401 53.4475 46.9713 56 43.8023 56H15.0465C11.8774 56 9.30861 53.4475 9.30861 50.2986V47.5322H5.73785C2.5688 47.5322 3.66033e-08 44.9797 0 41.8308V5.70144C5.85671e-07 2.5525 2.5688 7.2742e-08 5.73785 0H34.1442C37.3132 7.27443e-08 39.882 2.5525 39.882 5.70144V10.1614Z" fill="black"/>
</svg>
