<svg width="59" height="60" viewBox="0 0 59 60" fill="none" xmlns="http://www.w3.org/2000/svg">
<path d="M43.5946 53.1172C43.5946 53.0943 43.5952 53.0713 43.5967 53.0484C43.6329 52.4705 43.7306 51.7303 44.2547 51.1757C44.7938 50.6054 45.5441 50.475 46.2032 50.4389L46.2625 50.4379H49.8704C50.0842 50.4224 50.2081 50.4016 50.2812 50.3804C50.2858 50.3791 50.2896 50.3765 50.2935 50.3753C50.3155 50.3233 50.3617 50.1895 50.3956 49.8971V42.083C50.3964 41.2791 50.4916 40.2934 51.2713 39.6171C51.9884 38.9954 53.0238 38.879 54.1098 38.8793H55.5087L55.5485 38.8803C56.1935 38.9034 56.5248 38.6311 56.6755 38.3724C56.8439 38.0832 56.85 37.7144 56.6674 37.4109L52.1296 30.0554C52.0006 29.8461 51.9446 29.5993 51.9712 29.3546C53.161 18.4258 44.6027 8.6467 32.1721 9.03672C28.3064 9.15803 24.5979 10.5291 21.4688 12.7555C21.4604 12.7615 21.4508 12.7662 21.4423 12.7719L22.8523 15.2254C23.4386 14.7381 24.0675 14.3105 24.8693 14.0926C25.5849 13.8981 26.3571 13.8908 27.2603 14.03C27.8065 13.06 28.7742 12.4118 29.7821 12.1634C30.9152 11.8843 32.2213 12.0793 33.2347 12.9494C34.7371 12.4834 36.5257 12.5286 38.0821 12.9638C39.6104 13.3912 41.1738 14.2776 41.9781 15.717C42.7454 15.6967 43.4857 15.7748 44.1597 16.1028C44.9904 16.5072 45.5601 17.2079 46.0265 18.1182C47.0121 18.5726 47.8745 19.1634 48.4318 19.9971C49.0266 20.8872 49.1834 21.9157 48.9815 23.0396C50.0148 25.4367 49.6656 28.1744 48.3224 30.2145C46.9057 32.3662 44.372 33.7556 41.2241 33.2098L36.1611 40.1117C35.854 40.5302 35.2977 40.6761 34.8256 40.4627C34.3537 40.2493 34.094 39.7344 34.2023 39.2262L34.8461 36.2052C33.1228 35.8889 31.7572 35.5518 30.4841 35.1236C30.3171 35.9499 30.0009 36.6347 29.5563 37.2108C28.9003 38.0607 28.0371 38.5778 27.3012 38.9809C25.7372 39.8377 24.6937 40.2825 24.3094 41.8264C24.187 42.3174 23.7477 42.6617 23.2437 42.6617H20.6279C20.0588 42.6616 19.5838 42.2253 19.5336 41.6561C19.4337 40.5254 19.3691 39.462 19.693 38.3016C19.94 37.4166 20.3943 36.5359 21.1184 35.5299C20.9529 35.4227 20.7922 35.3197 20.6442 35.219C20.1917 34.9109 19.7422 34.5737 19.3701 34.1806C18.9878 33.7767 18.6671 33.2924 18.5036 32.6916C18.3915 32.2794 18.3662 31.8525 18.4106 31.4099C17.6262 30.5502 16.9885 29.673 16.7543 28.6383C16.4898 27.4693 16.7801 26.3122 17.4256 25.0293C17.0608 24.2123 16.9369 23.2361 16.9147 22.1715H13.975C13.9698 22.2826 13.9484 22.3952 13.9076 22.505C11.3617 29.363 12.7127 37.7321 21.3953 44.558L21.8142 44.8823L21.9133 44.9665C22.4421 45.4771 22.9138 45.9596 23.2467 46.4831C23.6092 47.0532 23.7927 47.6448 23.8189 48.3476V57.2854L23.8373 57.4845C23.8645 57.6448 23.9115 57.702 23.9211 57.7123C23.9277 57.7193 23.9436 57.7356 23.9886 57.7523C24.0381 57.7707 24.1326 57.7933 24.29 57.7934H42.6004C42.8735 57.7934 43.0787 57.792 43.2595 57.7739C43.4263 57.7571 43.5071 57.7294 43.5405 57.7144C43.555 57.681 43.5946 57.5702 43.5946 57.3203V53.1172ZM32.0688 14.9043C31.6263 14.3177 30.9579 14.1457 30.3063 14.306C29.6233 14.4742 29.1386 14.9603 29.0301 15.5056C28.9718 15.7982 28.7974 16.055 28.5478 16.2167C28.2982 16.3783 27.9941 16.4307 27.7048 16.3635C26.5251 16.0891 25.887 16.1024 25.4436 16.2229C25.0038 16.3424 24.6121 16.6021 23.9691 17.1669L24.0826 17.364C25.3109 19.5005 23.7752 22.1715 21.3186 22.1715H19.1136C19.1511 23.7087 19.4289 24.3084 19.7716 24.6106C20.163 24.9557 20.9458 25.203 22.7307 25.2192C23.3374 25.2247 23.8244 25.7232 23.8189 26.3325C23.8133 26.9417 23.3169 27.4309 22.7103 27.4254C21.2975 27.4125 20.0438 27.2755 19.0605 26.7666C18.8342 27.3895 18.8199 27.8093 18.897 28.1499C19.0212 28.6981 19.4278 29.3019 20.3724 30.2843C20.6318 30.5541 20.7368 30.9381 20.6514 31.3032C20.5599 31.6935 20.578 31.9413 20.6238 32.1098C20.6692 32.2768 20.7645 32.451 20.962 32.6598C21.1697 32.8792 21.4645 33.1103 21.8775 33.3914C22.3041 33.6818 22.75 33.9563 23.3203 34.3293C23.5821 34.5006 23.759 34.7756 23.8067 35.0856C23.8542 35.3958 23.7681 35.7123 23.5696 35.9548C22.4826 37.2822 22.0155 38.1577 21.8091 38.8968C21.6723 39.3868 21.6362 39.8631 21.6558 40.4555H22.4559C23.3054 38.4379 25.084 37.6815 26.2487 37.0435C26.9514 36.6586 27.4616 36.3217 27.8192 35.8583C28.0832 35.5162 28.3059 35.0439 28.3873 34.3057C27.5946 33.9555 26.7792 33.5536 25.8748 33.0795C25.3369 32.7975 25.1281 32.1307 25.4088 31.5905C25.6897 31.0506 26.3537 30.8417 26.8915 31.1236C29.854 32.6767 31.7138 33.3929 35.3069 34.0472L35.5562 32.8784L32.8822 32.1118C32.3074 31.9469 31.9688 31.3502 32.121 30.7696L34.7367 20.7872C34.887 20.2143 35.4615 19.8627 36.0375 19.9909L40.7459 21.0417C41.0495 21.1094 41.3109 21.3035 41.4642 21.5753C41.6174 21.8471 41.6484 22.1717 41.55 22.468L39.8324 27.6419L42.8671 28.4043C43.2225 28.4936 43.5104 28.7549 43.6345 29.1011C43.7585 29.4473 43.7026 29.8331 43.4853 30.1293L42.7588 31.1185C44.4206 31.0584 45.6972 30.2005 46.4893 28.9975C47.4362 27.5594 47.6785 25.6446 46.9982 23.9909L46.8092 23.5732C46.726 23.3603 46.7106 23.1255 46.7662 22.9021C46.9708 22.0801 46.8492 21.5875 46.6079 21.2264C46.3318 20.8134 45.7812 20.3948 44.7973 19.9868C44.5406 19.8804 44.3336 19.68 44.2179 19.4265C43.8055 18.5217 43.4774 18.2229 43.2012 18.0884C43.0356 18.0079 42.8248 17.9537 42.5187 17.9324C42.4984 18.5793 42.3397 19.253 42.0354 19.9406C41.789 20.4971 41.1397 20.7479 40.5854 20.5009C40.031 20.2534 39.7811 19.6006 40.0276 19.0438C40.3777 18.2524 40.3775 17.6503 40.236 17.1926C39.9605 16.3017 38.9772 15.5041 37.4925 15.089C36.4852 14.8074 35.4168 14.7553 34.5099 14.9094C34.6444 15.3081 34.7433 15.7421 34.798 16.2116C34.8686 16.8167 34.4371 17.3649 33.8345 17.4358C33.232 17.5065 32.6861 17.0732 32.6155 16.4681C32.5279 15.717 32.3084 15.2218 32.0688 14.9043ZM34.5201 30.2863L37.1482 31.0405C37.7037 31.2001 38.0415 31.765 37.9206 32.3325L37.42 34.6741L40.7438 30.1457L38.1485 29.4941C37.8518 29.4195 37.5998 29.2236 37.4526 28.9544C37.3055 28.685 37.2762 28.3664 37.3729 28.0749L39.0793 22.9308L36.5923 22.3757L34.5201 30.2863ZM13.1188 2.70638C12.7362 2.04088 11.7797 2.04088 11.3971 2.70638L2.33585 18.4681C1.95341 19.1336 2.4311 19.9652 3.1962 19.9653H21.3186C22.0836 19.9653 22.5621 19.1335 22.18 18.4681L13.1188 2.70638ZM11.159 18.4414V17.916C11.159 17.3067 11.6507 16.813 12.2574 16.8129C12.8642 16.8129 13.3558 17.3067 13.3558 17.916V18.4414C13.3558 19.0508 12.8642 19.5445 12.2574 19.5445C11.6507 19.5444 11.159 19.0507 11.159 18.4414ZM11.159 13.7129V5.83204C11.159 5.22276 11.6507 4.72903 12.2574 4.72892C12.8642 4.72892 13.3558 5.22269 13.3558 5.83204V13.7129C13.3558 14.3222 12.8642 14.816 12.2574 14.816C11.6507 14.8159 11.159 14.3222 11.159 13.7129ZM45.7915 57.3203C45.7915 57.8293 45.7087 58.314 45.489 58.7395C45.2592 59.1846 44.9172 59.4925 44.5306 59.6866C43.858 60.0243 43.0402 59.9996 42.6004 59.9996H24.29C23.5529 59.9995 22.8465 59.7803 22.3281 59.232C21.8242 58.6988 21.6436 58.0069 21.6231 57.3552C21.6228 57.3436 21.6221 57.3319 21.6221 57.3203V48.4184C21.6089 48.1042 21.54 47.898 21.3953 47.6704C21.2234 47.4002 20.9391 47.0897 20.4286 46.595C10.8631 39.2924 8.98525 29.9878 11.6954 22.1715H3.1962C0.739609 22.1714 -0.796037 19.5005 0.432264 17.364L9.49348 1.60224C10.7218 -0.534125 13.793 -0.534032 15.0213 1.60224L20.3408 10.8561C23.7564 8.46339 27.8228 6.96483 32.1036 6.83049C45.6747 6.40478 55.2926 17.0558 54.1926 29.2099L58.5352 36.2493L58.5383 36.2544C59.1577 37.2707 59.1388 38.5122 58.572 39.4858C58.023 40.4285 57.0067 41.0537 55.7283 41.0866L55.4688 41.0855H54.1098C53.6045 41.0854 53.2581 41.1188 53.0206 41.1707C52.7872 41.2218 52.7163 41.2785 52.7069 41.2867C52.7025 41.2905 52.6992 41.2947 52.6936 41.3041C52.6867 41.3158 52.6719 41.3446 52.6558 41.4016C52.6201 41.5287 52.5928 41.737 52.5925 42.085V49.9648C52.5925 50.0036 52.5914 50.0423 52.5874 50.0808C52.5154 50.7632 52.3459 51.4901 51.7904 52.0048C51.2415 52.5135 50.5345 52.6054 50.0002 52.6421C49.9753 52.6438 49.9496 52.6441 49.9246 52.6441H46.3115C46.0683 52.658 45.9301 52.6846 45.8558 52.7078C45.8552 52.71 45.8545 52.7125 45.8538 52.7149C45.8307 52.7954 45.8069 52.9314 45.7915 53.1613V57.3203Z" fill="black"/>
</svg>
