<svg width="35" height="46" viewBox="0 0 35 46" fill="none" xmlns="http://www.w3.org/2000/svg">
<path d="M13 13H18.9917V13.2596H16.6616V13.3173C17.0853 13.4615 17.4182 14.1538 17.5997 14.6442L24.5598 30.7115C24.5901 30.8269 24.8019 31.3462 24.8019 31.75H25.1953C25.1953 31.6058 25.2256 31.2019 25.4979 30.5962L32.2765 15.0481C32.3975 14.7596 32.458 14.5 32.458 14.2692C32.458 13.6635 32.0344 13.2596 31.0055 13.2596H28.403V13H35V13.2596H34.6369C33.6685 13.2596 33.4264 13.7788 32.8817 15.0481L24.8927 33.8846L23.2586 34L15.2393 15.0481C14.6644 13.75 14.4525 13.2596 13.4539 13.2596H13V13Z" fill="#692927"/>
<path d="M0 42.9532V42.4156H2.28421C5.41684 42.4156 5.74316 41.6987 5.74316 38.8312V3.64415C5.74316 0.776624 5.41684 0.537662 2.28421 0.537662H0V0H16.6421V0.537662H14.3579C11.2253 0.537662 10.8337 0.776624 10.8337 3.64415V38.7117C10.8337 40.026 10.1811 41.1013 9.39789 41.8182V41.8779H18.2084C24.4737 41.8779 28.6505 40.7429 29.1726 35.0078L29.6947 29.0338H31L29.6947 46L29.0421 45.9403L29.3032 42.4156H29.2379C28.7811 42.8338 28.52 42.9532 27.4758 42.9532H0Z" fill="#692927"/>
<circle cx="25" cy="19" r="2" fill="#692927"/>
</svg>
