<svg width="30" height="30" viewBox="0 0 30 30" fill="none" xmlns="http://www.w3.org/2000/svg">
<path d="M30 15C30 23.2843 23.2843 30 15 30C6.71573 30 0 23.2843 0 15C0 6.71573 6.71573 0 15 0C23.2843 0 30 6.71573 30 15Z" fill="#692927"/>
<path d="M21.785 7.09926L5.84049 13.2478C4.75234 13.6848 4.75863 14.2918 5.64085 14.5625L9.73445 15.8395L19.2058 9.8637C19.6537 9.59121 20.0629 9.7378 19.7265 10.0364L12.0528 16.9619H12.051L12.0528 16.9628L11.7705 21.1823C12.1841 21.1823 12.3667 20.9925 12.5987 20.7686L14.5871 18.8351L18.7229 21.89C19.4855 22.31 20.0332 22.0941 20.2229 21.1841L22.9379 8.38885C23.2158 7.27462 22.5126 6.77012 21.785 7.09926Z" fill="white"/>
</svg>
