<svg width="30" height="30" viewBox="0 0 30 30" fill="none" xmlns="http://www.w3.org/2000/svg">
<path d="M30 15C30 23.2843 23.2843 30 15 30C6.71573 30 0 23.2843 0 15C0 6.71573 6.71573 0 15 0C23.2843 0 30 6.71573 30 15Z" fill="#692927"/>
<path d="M23.5006 9.62876C20.5135 4.99811 14.3965 3.62606 9.66579 6.49878C5.04942 9.3715 3.56304 15.6315 6.5501 20.2478L6.79307 20.6194L5.79262 24.364L9.53716 23.3635L9.90875 23.6065C11.5238 24.4783 13.2817 24.9785 15.0253 24.9785C16.8976 24.9785 18.7699 24.4783 20.3849 23.4779C25.0013 20.4765 26.3733 14.3452 23.5006 9.60018V9.62876ZM20.8851 19.2617C20.3849 20.0049 19.756 20.5051 18.8842 20.6337C18.384 20.6337 17.7551 20.8767 15.2683 19.8905C13.1531 18.8901 11.3951 17.2608 10.1517 15.3885C9.40853 14.5167 9.02264 13.3876 8.9083 12.2585C8.9083 11.2581 9.2799 10.3862 9.90875 9.75739C10.1517 9.51443 10.409 9.3858 10.6519 9.3858H11.2808C11.5238 9.3858 11.781 9.3858 11.9097 9.88602C12.1526 10.5149 12.7815 12.0156 12.7815 12.1442C12.9101 12.2728 12.8529 13.2304 12.2813 13.7735C11.9668 14.1308 11.9097 14.1451 12.0383 14.4023C12.5385 15.1455 13.1674 15.903 13.7819 16.5319C14.5251 17.1607 15.2826 17.661 16.1544 18.0325C16.3974 18.1612 16.6546 18.1612 16.7833 17.9039C16.9119 17.661 17.5265 17.0321 17.7837 16.7748C18.0267 16.5319 18.1553 16.5319 18.4126 16.6462L20.4135 17.6467C20.6565 17.7753 20.9137 17.8896 21.0423 18.0183C21.171 18.3899 21.171 18.8901 20.9137 19.2617H20.8851Z" fill="white"/>
</svg>
